<svg width="900" height="620" viewBox="0 0 900 620" fill="none" xmlns="http://www.w3.org/2000/svg">
  <rect width="900" height="620" rx="38" fill="#030712"/>
  <rect x="28" y="28" width="844" height="564" rx="28" fill="url(#paint0_linear)" fill-opacity="0.85" stroke="rgba(255,255,255,0.12)"/>
  <circle cx="767" cy="147" r="108" fill="#60A5FA" fill-opacity="0.18"/>
  <circle cx="169" cy="493" r="120" fill="#A855F7" fill-opacity="0.15"/>
  <rect x="88" y="94" width="334" height="430" rx="26" fill="#071120" stroke="#1E293B"/>
  <rect x="470" y="94" width="340" height="124" rx="24" fill="#081223" stroke="#1E293B"/>
  <rect x="470" y="246" width="340" height="116" rx="24" fill="#081223" stroke="#1E293B"/>
  <rect x="470" y="390" width="340" height="134" rx="24" fill="#081223" stroke="#1E293B"/>
  <rect x="116" y="132" width="118" height="12" rx="6" fill="#38BDF8"/>
  <rect x="116" y="160" width="210" height="12" rx="6" fill="#334155"/>
  <rect x="116" y="214" width="274" height="240" rx="24" fill="#0F172A"/>
  <path d="M160 374C191.333 334.667 221.667 315 251 315C280.333 315 310.667 338.667 342 386" stroke="#22D3EE" stroke-width="10" stroke-linecap="round"/>
  <rect x="498" y="125" width="112" height="10" rx="5" fill="#818CF8"/>
  <rect x="498" y="152" width="190" height="10" rx="5" fill="#334155"/>
  <rect x="498" y="277" width="144" height="10" rx="5" fill="#38BDF8"/>
  <rect x="498" y="305" width="238" height="10" rx="5" fill="#334155"/>
  <rect x="498" y="420" width="132" height="10" rx="5" fill="#C084FC"/>
  <rect x="498" y="447" width="244" height="10" rx="5" fill="#334155"/>
  <defs>
    <linearGradient id="paint0_linear" x1="91" y1="83" x2="774" y2="544" gradientUnits="userSpaceOnUse">
      <stop stop-color="#0F172A"/>
      <stop offset="1" stop-color="#111827"/>
    </linearGradient>
  </defs>
</svg>
