<svg width="900" height="620" viewBox="0 0 900 620" fill="none" xmlns="http://www.w3.org/2000/svg">
  <rect width="900" height="620" rx="38" fill="#020617"/>
  <rect x="28" y="28" width="844" height="564" rx="28" fill="#08111F" stroke="#1E293B"/>
  <circle cx="165" cy="114" r="120" fill="#2563EB" fill-opacity="0.2"/>
  <circle cx="738" cy="478" r="136" fill="#38BDF8" fill-opacity="0.14"/>
  <rect x="94" y="94" width="278" height="432" rx="30" fill="#0F172A" stroke="#334155"/>
  <rect x="408" y="94" width="398" height="182" rx="28" fill="#0F172A" stroke="#334155"/>
  <rect x="408" y="304" width="188" height="222" rx="28" fill="#0F172A" stroke="#334155"/>
  <rect x="618" y="304" width="188" height="222" rx="28" fill="#0F172A" stroke="#334155"/>
  <rect x="122" y="126" width="132" height="10" rx="5" fill="#60A5FA"/>
  <rect x="122" y="152" width="182" height="10" rx="5" fill="#334155"/>
  <rect x="122" y="204" width="222" height="222" rx="24" fill="#111827"/>
  <path d="M154 364L203 312L258 344L320 250" stroke="#38BDF8" stroke-width="10" stroke-linecap="round" stroke-linejoin="round"/>
  <rect x="438" y="128" width="128" height="10" rx="5" fill="#38BDF8"/>
  <rect x="438" y="155" width="236" height="10" rx="5" fill="#334155"/>
  <rect x="438" y="189" width="316" height="56" rx="18" fill="#111827"/>
  <rect x="438" y="338" width="92" height="92" rx="24" fill="#111827"/>
  <rect x="648" y="338" width="126" height="12" rx="6" fill="#93C5FD"/>
  <rect x="648" y="364" width="110" height="12" rx="6" fill="#334155"/>
  <rect x="438" y="462" width="126" height="12" rx="6" fill="#A855F7"/>
</svg>
