<svg width="900" height="620" viewBox="0 0 900 620" fill="none" xmlns="http://www.w3.org/2000/svg">
  <rect width="900" height="620" rx="38" fill="#020617"/>
  <rect x="32" y="32" width="836" height="556" rx="28" fill="#0B1120" stroke="#1E293B"/>
  <circle cx="744" cy="132" r="116" fill="#A855F7" fill-opacity="0.18"/>
  <circle cx="200" cy="506" r="136" fill="#38BDF8" fill-opacity="0.14"/>
  <rect x="92" y="96" width="716" height="72" rx="22" fill="#111827" stroke="#334155"/>
  <rect x="92" y="204" width="352" height="316" rx="26" fill="#101826" stroke="#334155"/>
  <rect x="480" y="204" width="328" height="144" rx="26" fill="#101826" stroke="#334155"/>
  <rect x="480" y="376" width="328" height="144" rx="26" fill="#101826" stroke="#334155"/>
  <rect x="122" y="121" width="156" height="10" rx="5" fill="#E879F9"/>
  <rect x="122" y="141" width="230" height="10" rx="5" fill="#334155"/>
  <rect x="126" y="240" width="284" height="18" rx="9" fill="#38BDF8"/>
  <rect x="126" y="276" width="284" height="14" rx="7" fill="#334155"/>
  <rect x="126" y="308" width="216" height="14" rx="7" fill="#334155"/>
  <rect x="126" y="340" width="250" height="14" rx="7" fill="#334155"/>
  <rect x="126" y="372" width="194" height="14" rx="7" fill="#334155"/>
  <rect x="126" y="418" width="92" height="36" rx="18" fill="#A855F7"/>
  <rect x="510" y="234" width="148" height="12" rx="6" fill="#A855F7"/>
  <rect x="510" y="262" width="222" height="12" rx="6" fill="#334155"/>
  <rect x="510" y="405" width="124" height="12" rx="6" fill="#22D3EE"/>
  <rect x="510" y="433" width="210" height="12" rx="6" fill="#334155"/>
</svg>
